<?xml version="1.0" encoding="UTF-8"?>
<svg version="1.1" xmlns="http://www.w3.org/2000/svg" width="400" height="400">
<path d="M0 0 C132 0 264 0 400 0 C400 132 400 264 400 400 C268 400 136 400 0 400 C0 268 0 136 0 0 Z " fill="#02B189" transform="translate(0,0)"/>
<path d="M0 0 C15.8126641 -0.07031066 31.62528549 -0.12309561 47.43806744 -0.15543652 C54.78143755 -0.17085702 62.12471011 -0.19185347 69.46801758 -0.22631836 C75.87394447 -0.25636925 82.27980065 -0.27560994 88.68579608 -0.28226548 C92.07275677 -0.28615141 95.45951533 -0.29518112 98.84641075 -0.31719017 C102.64211133 -0.33912812 106.43740002 -0.34196004 110.2331543 -0.34057617 C111.33655655 -0.351362 112.4399588 -0.36214783 113.57679749 -0.3732605 C132.0536346 -0.30088445 146.55815169 6.49708199 160.046875 18.87890625 C164.45958466 23.38568531 167.4723214 28.29652378 170.3125 33.875 C170.63806885 34.51042725 170.9636377 35.14585449 171.29907227 35.80053711 C176.7236867 47.01497917 177.44133138 57.85977936 177.40405273 70.09448242 C177.40976506 71.79739324 177.41673263 73.50030024 177.42485046 75.20320129 C177.44269572 79.79803772 177.44163059 84.39268229 177.43590808 88.98754287 C177.43280559 92.83215739 177.43891999 96.67673562 177.44494683 100.52134496 C177.45896025 109.59132811 177.45745557 118.66121698 177.44604492 127.73120117 C177.43454929 137.07502403 177.44867088 146.41856035 177.4754414 155.76234549 C177.49761091 163.80256134 177.50423347 171.8426873 177.49836498 179.88293153 C177.49499933 184.67745323 177.49738528 189.47179099 177.51461601 194.26628685 C177.53010452 198.77184324 177.5261086 203.27697484 177.50731087 207.78251457 C177.50363117 209.432034 177.50671539 211.08158506 177.51719666 212.73107529 C177.57381397 222.38030778 177.36148481 229.47545257 171.125 237.375 C166.44861349 240.95106027 161.47842932 241.25138394 155.75350952 241.26069641 C155.04631165 241.26452196 154.33911378 241.26834751 153.61048567 241.27228898 C151.25245411 241.28256678 148.89466843 241.27863676 146.53662109 241.2746582 C144.8409401 241.27900775 143.14526108 241.28419171 141.44958496 241.29014587 C136.85008548 241.30352561 132.25066823 241.30411535 127.65115309 241.30158257 C123.80468831 241.30051149 119.95824008 241.3054001 116.11177886 241.310188 C107.0297475 241.32128109 97.9477575 241.32172265 88.86572266 241.31567383 C79.51702062 241.30964269 70.16846941 241.32192361 60.81979311 241.3432439 C52.77877706 241.36090331 44.73780883 241.36685416 36.69677413 241.36360615 C31.90096095 241.36179899 27.1052552 241.364372 22.30945969 241.37832069 C17.79335526 241.39096402 13.2774842 241.38889385 8.76138306 241.37590981 C7.11193383 241.37355802 5.46246786 241.37622805 3.81303787 241.38453293 C-14.86866224 241.47174551 -31.13085632 237.41820715 -44.93994141 224.25537109 C-57.6957785 211.499534 -64.20183385 195.87993056 -64.24884033 177.95005798 C-64.24164978 176.8358699 -64.23445923 175.72168182 -64.22705078 174.57373047 C-64.22734283 173.37258102 -64.22763489 172.17143158 -64.22793579 170.93388367 C-64.22678928 167.67211281 -64.21682713 164.41051834 -64.20278788 161.14878225 C-64.19020161 157.72819391 -64.18910384 154.30760133 -64.18673706 150.88699341 C-64.18054532 144.42387958 -64.16416606 137.96083422 -64.14403808 131.4977504 C-64.11940236 123.40997179 -64.10852299 115.32218183 -64.09765625 107.234375 C-64.07823281 92.82286348 -64.03815931 78.41150111 -64 64 C-46.18 64 -28.36 64 -10 64 C-10 75.22 -10 86.44 -10 98 C-16.6 98 -23.2 98 -30 98 C-29.95958147 109.04053089 -29.90236869 120.08063141 -29.81609726 131.12090111 C-29.77669279 136.24809368 -29.74446987 141.37511631 -29.72900391 146.50244141 C-29.71379098 151.45637801 -29.6792634 156.40984719 -29.63169098 161.36357498 C-29.61692488 163.2476252 -29.60896174 165.13174217 -29.60811615 167.01585007 C-29.61872751 183.10950147 -29.61872751 183.10950147 -22.6875 197.375 C-16.78687362 203.13840251 -9.92020486 206.23730571 -1.66618347 206.2784729 C0.2499324 206.29521812 0.2499324 206.29521812 2.20475769 206.31230164 C3.61282319 206.31466637 5.02088902 206.31684206 6.42895508 206.31884766 C7.91736392 206.32814963 9.40576756 206.33831871 10.89416504 206.34928894 C14.92885322 206.3765727 18.96350651 206.39173352 22.99826264 206.40471697 C27.21703734 206.42035461 31.43574087 206.44714282 35.65446472 206.4727478 C43.64057205 206.51952436 51.62669279 206.55627391 59.61286706 206.58942068 C68.7059616 206.62764999 77.79898465 206.67705804 86.89201891 206.72740483 C105.59462694 206.83070799 124.29727862 206.91997366 143 207 C143.00957409 187.5191498 142.98482401 168.03862758 142.9197216 148.5578804 C142.89028191 139.51167039 142.87188147 130.46569438 142.87988281 121.41943359 C142.88683206 113.53048465 142.87264688 105.64189819 142.83356392 97.75303817 C142.81361334 93.57962796 142.80391994 89.40678616 142.81957626 85.23334503 C142.83401018 81.29646048 142.81995877 77.36065651 142.78504753 73.42391014 C142.77714851 71.9873439 142.77922074 70.55067848 142.79260826 69.11415291 C142.87459286 59.49509806 141.49679811 52.05383221 136 44 C129.8354573 37.81107976 122.24038623 34.71179875 113.55149078 34.56330585 C112.77459648 34.56473182 111.99770218 34.56615778 111.19726562 34.56762695 C109.91714725 34.55221627 109.91714725 34.55221627 108.61116791 34.53649426 C105.87612119 34.50684376 103.14143455 34.49710177 100.40625 34.48828125 C98.70669317 34.47279843 97.00714782 34.45599859 95.30761719 34.43786621 C89.03853787 34.38014846 82.76924543 34.34783483 76.5 34.3125 C55.4625 34.1578125 55.4625 34.1578125 34 34 C34 69.64 34 105.28 34 142 C48.52 142 63.04 142 78 142 C78 127.48 78 112.96 78 98 C67.11 98 56.22 98 45 98 C45 86.78 45 75.56 45 64 C52.40215704 63.90798424 59.80231579 63.8283964 67.20458984 63.78027344 C69.72060891 63.76020484 72.23658161 63.7329437 74.75244141 63.69824219 C78.37674428 63.64951688 82.00042841 63.62698278 85.625 63.609375 C86.74302002 63.58872986 87.86104004 63.56808472 89.01293945 63.54681396 C96.23049938 63.54475776 102.21323968 64.29732707 107.55297852 69.51849365 C110.61526626 73.07176802 112.1260547 75.40834652 112.12025452 80.03689575 C112.12231651 81.30314285 112.12231651 81.30314285 112.12442017 82.5949707 C112.12082489 83.522854 112.11722961 84.4507373 112.11352539 85.40673828 C112.11367142 86.38238739 112.11381744 87.3580365 112.1139679 88.36325073 C112.11326935 91.59896034 112.10547966 94.8346129 112.09765625 98.0703125 C112.09579186 100.30947844 112.09436806 102.54864479 112.09336853 104.78781128 C112.08954498 110.68972901 112.07971607 116.59162224 112.06866455 122.49353027 C112.05844694 128.51261056 112.05387016 134.5316948 112.04882812 140.55078125 C112.03809367 152.36719828 112.02101918 164.18359711 112 176 C99.06530523 176.0926932 86.13068952 176.16376184 73.19573021 176.20724869 C67.18944947 176.22812055 61.18339602 176.25643146 55.17724609 176.30175781 C49.38062939 176.34522898 43.58423128 176.36914013 37.78746414 176.37950897 C35.5762653 176.38689798 33.36507838 176.40132696 31.15397263 176.42292023 C28.055999 176.4519704 24.95892783 176.45595523 21.86083984 176.45410156 C20.94733765 176.46848267 20.03383545 176.48286377 19.09265137 176.49768066 C13.55240588 176.46182657 10.39167611 175.7019477 6 172 C1.32716604 166.80796226 -0.25128322 163.33409284 -0.24050903 156.33087158 C-0.24221788 155.66183485 -0.24392673 154.99279811 -0.24568737 154.30348754 C-0.24897982 152.06321843 -0.23798281 149.8232493 -0.22705078 147.58300781 C-0.22648661 145.97652697 -0.22680334 144.37004561 -0.22793579 142.76356506 C-0.22851009 138.40232566 -0.21674331 134.04119605 -0.20278788 129.67998219 C-0.19029337 125.12225207 -0.18911103 120.5645195 -0.18673706 116.0067749 C-0.18051853 107.37601258 -0.16410266 98.74530087 -0.14403808 90.11456084 C-0.12169069 80.28878547 -0.11068857 70.46300769 -0.10064721 60.63721323 C-0.07973676 40.42478056 -0.04455353 20.21239347 0 0 Z " fill="#FAFEFD" transform="translate(144,80)"/>
<path d="M0 0 C3.98550992 3.58695893 5.79921958 6.57406129 6.24609566 11.9734621 C6.24425207 13.08237906 6.24240849 14.19129602 6.24050903 15.33381653 C6.24463303 17.2499324 6.24463303 17.2499324 6.24884033 19.20475769 C6.24176295 20.61282443 6.23449334 22.02089022 6.22705078 23.42895508 C6.2264864 24.91735832 6.22680375 26.40576212 6.22793579 27.89416504 C6.22850926 31.92891315 6.21675581 35.96354219 6.20278788 39.99826264 C6.19027966 44.21699052 6.18910994 48.43572117 6.18673706 52.65446472 C6.18052256 60.64062514 6.16411215 68.62673076 6.14403808 76.61286706 C6.12167815 85.70590992 6.11068541 94.7989554 6.10064721 103.89201891 C6.0797459 122.59471034 6.0445705 141.29735076 6 160 C-13.54976469 160.07013461 -33.0995038 160.12300999 -52.64936829 160.15543652 C-61.72706309 160.17089406 -70.80467964 160.19196228 -79.88232422 160.22631836 C-87.79598863 160.25625481 -95.70959635 160.27558309 -103.62331581 160.28226548 C-107.81214033 160.28617055 -112.00080272 160.29532476 -116.1895752 160.31719017 C-120.13595044 160.33762247 -124.08209746 160.34382024 -128.02852058 160.33932304 C-129.47324935 160.34014524 -130.91798612 160.34607072 -132.36266899 160.35761642 C-139.91718319 160.41500614 -146.1283711 160.30240163 -153 157 C-153 156.67 -153 156.34 -153 156 C-151.00045254 155.95745644 -148.99958364 155.95919217 -147 156 C-146.67 156.33 -146.34 156.66 -146 157 C-144.0640635 157.1088746 -142.12412793 157.14689834 -140.18516541 157.15821838 C-138.28991875 157.17290161 -138.28991875 157.17290161 -136.35638428 157.18788147 C-134.94323768 157.19378643 -133.53009069 157.19959683 -132.11694336 157.20532227 C-130.63897931 157.21489537 -129.16101804 157.22490511 -127.68305969 157.23532104 C-123.65847154 157.26243772 -119.63387158 157.28341053 -115.6092422 157.30332303 C-111.40781277 157.32514103 -107.20642002 157.35255013 -103.00502014 157.37937927 C-95.04356403 157.42936295 -87.08208762 157.47428065 -79.1205917 157.51740164 C-68.36610873 157.57594066 -57.61167395 157.64225789 -46.857234 157.70815182 C-29.9048551 157.81181525 -12.95243509 157.90504535 4 158 C4 108.83 4 59.66 4 9 C3.01 8.67 2.02 8.34 1 8 C0 2.25 0 2.25 0 0 Z " fill="#3FB498" transform="translate(281,127)"/>
<path d="M0 0 C0 3 0 3 -2.46549988 5.65577698 C-8.61438073 9.73750173 -16.46655445 8.61810111 -23.55200195 8.50756836 C-25.24434041 8.4995638 -26.93669044 8.49375116 -28.62904358 8.48995972 C-33.21163651 8.47323632 -37.79341617 8.42518987 -42.37569833 8.37090373 C-47.17126815 8.3188702 -51.96698371 8.29389949 -56.76274109 8.26551819 C-64.81021516 8.21394106 -72.85733707 8.14323224 -80.90454102 8.05981445 C-90.21640071 7.96339856 -99.52818794 7.89135449 -108.84036285 7.83359998 C-118.75066123 7.77206334 -128.66079442 7.69534642 -138.57093787 7.61276937 C-141.43021391 7.58980815 -144.28949941 7.56941963 -147.14879799 7.54948235 C-151.63292351 7.51728935 -156.11683644 7.47475658 -160.60079002 7.42408371 C-162.24956983 7.40696888 -163.89838864 7.39324108 -165.54722595 7.38307762 C-167.79063266 7.3686351 -170.0335637 7.34202319 -172.27680969 7.31211853 C-173.53426152 7.30009368 -174.79171335 7.28806883 -176.08726978 7.27567959 C-179 7 -179 7 -181 5 C-180.11485686 4.99761165 -179.22971373 4.99522329 -178.31774807 4.99276257 C-156.77625015 4.93361619 -135.23486415 4.85806836 -113.69348812 4.76428509 C-103.27621917 4.71932727 -92.8589844 4.67991253 -82.44165039 4.65356445 C-73.36147583 4.63058431 -64.28140946 4.59718603 -55.20132071 4.55129844 C-50.39386584 4.52736651 -45.58651812 4.50863751 -40.77900505 4.50238609 C-36.25227931 4.49633514 -31.72582772 4.47633481 -27.19920349 4.44572449 C-25.53961656 4.43694445 -23.87999381 4.43322161 -22.2203846 4.43499184 C-19.94978465 4.4366488 -17.68001627 4.41991042 -15.40953064 4.39872742 C-14.1402217 4.39411845 -12.87091276 4.38950949 -11.56313992 4.38476086 C-7.52568473 3.94878171 -2.99578522 2.99578522 0 0 Z " fill="#17A785" transform="translate(315,316)"/>
<path d="M0 0 C2.69030149 2.69030149 2.23656887 4.74937726 2.24884033 8.40458679 C2.2380545 9.75433342 2.2380545 9.75433342 2.22705078 11.13134766 C2.22734283 12.07773605 2.22763489 13.02412445 2.22793579 13.99919128 C2.2265388 17.13757391 2.21096024 20.27572118 2.1953125 23.4140625 C2.19158368 25.5859667 2.18873609 27.75787257 2.18673706 29.92977905 C2.17909027 35.65418112 2.15943281 41.37848216 2.1373291 47.10284424 C2.11689317 52.94094475 2.10774017 58.77906155 2.09765625 64.6171875 C2.0761879 76.07816946 2.04203937 87.53907634 2 99 C-1.40678409 100.70339205 -5.29534266 100.0761627 -9.03955078 100.02172852 C-9.97618561 100.01212097 -10.91282043 100.00251343 -11.87783813 99.99261475 C-14.98373758 99.95954861 -18.08949969 99.9192453 -21.1953125 99.87890625 C-23.3447928 99.85461258 -25.49427822 99.83076865 -27.64376831 99.80735779 C-33.30899889 99.74444197 -38.97413903 99.67539659 -44.63928223 99.60510254 C-50.41703157 99.53448673 -56.19484518 99.46962939 -61.97265625 99.40429688 C-73.31517479 99.27518792 -84.65760616 99.13960764 -96 99 C-96 98.67 -96 98.34 -96 98 C-64.32 98 -32.64 98 0 98 C0 65.66 0 33.32 0 0 Z " fill="#52C5AA" transform="translate(256,158)"/>
<path d="M0 0 C1.01037827 0.00222061 2.02075653 0.00444122 3.06175232 0.00672913 C4.77341331 0.00684242 4.77341331 0.00684242 6.51965332 0.00695801 C7.76129745 0.01211929 9.00294159 0.01728058 10.2822113 0.02259827 C12.17785072 0.02472069 12.17785072 0.02472069 14.11178589 0.02688599 C17.47705394 0.0315487 20.84225495 0.04053972 24.20750427 0.05158997 C27.63930175 0.06180606 31.07110614 0.06638403 34.50291443 0.07142639 C41.2405633 0.08248071 47.9781803 0.09923742 54.71580505 0.12025452 C55.21080505 1.60525452 55.21080505 1.60525452 55.71580505 3.12025452 C55.16551636 2.95948929 54.61522766 2.79872406 54.04826355 2.63308716 C51.44432906 2.06056567 49.06253584 1.9593667 46.39646912 1.91493225 C45.33567139 1.89498703 44.27487366 1.87504181 43.18193054 1.85449219 C41.4739328 1.82942345 41.4739328 1.82942345 39.73143005 1.80384827 C38.56069946 1.78306717 37.38996887 1.76228607 36.1837616 1.74087524 C32.44450237 1.67549824 28.70517301 1.61654961 24.96580505 1.55775452 C22.43064156 1.51455805 19.89548515 1.47094339 17.3603363 1.42689514 C11.14556339 1.31904217 4.93073712 1.21987996 -1.28419495 1.12025452 C-1.28419495 12.34025452 -1.28419495 23.56025452 -1.28419495 35.12025452 C9.60580505 35.12025452 20.49580505 35.12025452 31.71580505 35.12025452 C31.71580505 48.98025452 31.71580505 62.84025452 31.71580505 77.12025452 C31.38580505 77.12025452 31.05580505 77.12025452 30.71580505 77.12025452 C30.71580505 65.24025452 30.71580505 53.36025452 30.71580505 41.12025452 C29.06580505 40.79025452 27.41580505 40.46025452 25.71580505 40.12025452 C26.04580505 39.46025452 26.37580505 38.80025452 26.71580505 38.12025452 C17.14580505 37.79025452 7.57580505 37.46025452 -2.28419495 37.12025452 C-3.81201068 34.06462304 -3.42629749 30.8740157 -3.41700745 27.52259827 C-3.41844254 26.39840233 -3.41844254 26.39840233 -3.41990662 25.25149536 C-3.42058735 23.66697607 -3.41874046 22.082454 -3.41456604 20.49794006 C-3.40920878 18.06403897 -3.41451842 15.63032179 -3.4209137 13.19642639 C-3.42025304 11.65931661 -3.41897215 10.12220694 -3.41700745 8.58509827 C-3.41903168 7.85282516 -3.42105591 7.12055206 -3.42314148 6.36608887 C-3.39421179 0.17869285 -3.39421179 0.17869285 0 0 Z " fill="#26AC8B" transform="translate(190.28419494628906,142.87974548339844)"/>
<path d="M0 0 C17.49 0 34.98 0 53 0 C53 0.33 53 0.66 53 1 C36.17 1 19.34 1 2 1 C2.33 11.23 2.66 21.46 3 32 C12.9 32.33 22.8 32.66 33 33 C33 33.33 33 33.66 33 34 C22.11 34 11.22 34 0 34 C0 22.78 0 11.56 0 0 Z " fill="#C8F5EE" transform="translate(189,144)"/>
<path d="M0 0 C15.75137708 -0.04680246 31.50273526 -0.08202916 47.2541647 -0.10362434 C54.56847399 -0.11391963 61.88273999 -0.12794641 69.19702148 -0.15087891 C75.57507564 -0.17086645 81.95309841 -0.18372913 88.33118302 -0.18817699 C91.70567051 -0.19077532 95.08006827 -0.19684576 98.4545269 -0.21146011 C102.22942259 -0.22601438 106.00413342 -0.22797626 109.77905273 -0.22705078 C111.44170166 -0.23783661 111.44170166 -0.23783661 113.13793945 -0.24884033 C119.40802387 -0.23224726 124.93216399 0.39897648 131 2 C131 2.33 131 2.66 131 3 C129.02090602 3.02686553 127.04171029 3.04633375 125.0625 3.0625 C123.96035156 3.07410156 122.85820312 3.08570312 121.72265625 3.09765625 C119 3 119 3 118 2 C116.4695654 1.89205032 114.9342039 1.85317012 113.40000916 1.84178162 C111.90864189 1.82709839 111.90864189 1.82709839 110.387146 1.81211853 C109.28735413 1.80636307 108.18756226 1.8006076 107.05444336 1.79467773 C105.32784233 1.77982834 105.32784233 1.77982834 103.56636047 1.76467896 C99.74087621 1.73295338 95.9153795 1.70826297 92.08984375 1.68359375 C89.44568041 1.66303376 86.80152043 1.64203756 84.15736389 1.62062073 C77.89587961 1.57064394 71.63436955 1.52572369 65.37283474 1.48259836 C58.24595156 1.4332685 51.11911508 1.37833466 43.99227703 1.32291877 C29.32822888 1.20902223 14.66413427 1.10219997 0 1 C0 0.67 0 0.34 0 0 Z " fill="#CDFCF1" transform="translate(145,80)"/>
<path d="M0 0 C18.15 0 36.3 0 55 0 C55.495 1.485 55.495 1.485 56 3 C55.44781799 2.83923477 54.89563599 2.67846954 54.32672119 2.51283264 C51.75402193 1.94578397 49.40662003 1.83943286 46.77246094 1.79467773 C45.73168396 1.77473251 44.69090698 1.75478729 43.61859131 1.73423767 C42.50179993 1.71752518 41.38500854 1.70081268 40.234375 1.68359375 C39.08584045 1.66281265 37.93730591 1.64203156 36.75396729 1.62062073 C33.08603889 1.55525007 29.41803907 1.49629806 25.75 1.4375 C23.26301346 1.39430293 20.77603413 1.35068825 18.2890625 1.30664062 C12.19278378 1.19958142 6.09643405 1.09779175 0 1 C0 0.67 0 0.34 0 0 Z " fill="#23AB8C" transform="translate(190,143)"/>
<path d="M0 0 C16.335 0.495 16.335 0.495 33 1 C33 2.65 33 4.3 33 6 C30.525 5.505 30.525 5.505 28 5 C28.33 4.34 28.66 3.68 29 3 C19.43 2.67 9.86 2.34 0 2 C0 1.34 0 0.68 0 0 Z " fill="#0BA984" transform="translate(188,178)"/>
<path d="M0 0 C0.99 1.0209375 0.99 1.0209375 2 2.0625 C5.49468234 5.56725347 9.25130779 8.77221788 13 12 C12.01 12.33 11.02 12.66 10 13 C9.34 12.67 8.68 12.34 8 12 C8.33 12.99 8.66 13.98 9 15 C7.0625 14.3125 7.0625 14.3125 5 13 C4.63128912 11.34080104 4.30404678 9.67225729 4 8 C2.69418644 5.9819245 1.36363208 3.97946592 0 2 C0 1.34 0 0.68 0 0 Z " fill="#13B08A" transform="translate(92,296)"/>
<path d="M0 0 C0.54527344 0.19335938 1.09054688 0.38671875 1.65234375 0.5859375 C7.0438052 2.44760453 12.40921726 3.87655666 18 5 C18 5.33 18 5.66 18 6 C11.83275956 6.12586205 5.95657125 5.66783995 0 4 C0 2.68 0 1.36 0 0 Z " fill="#1BAE8A" transform="translate(115,315)"/>
<path d="M0 0 C4.67248931 2.82522609 7.65996398 5.67760044 11 10 C8.6875 9.8125 8.6875 9.8125 6 9 C4.375 6.5 4.375 6.5 3 4 C2.01 3.67 1.02 3.34 0 3 C0 2.01 0 1.02 0 0 Z " fill="#D2F9F4" transform="translate(295,92)"/>
<path d="M0 0 C3.67230705 3.07999946 4.56802365 5.2482602 5 10 C3.0625 9.375 3.0625 9.375 1 8 C0.31450221 5.25800883 0 2.82008529 0 0 Z " fill="#1DAD8B" transform="translate(281,127)"/>
<path d="M0 0 C0.66 0 1.32 0 2 0 C4.24828052 4.49656104 4.16682272 8.07872966 4 13 C1.47519307 10.47519307 1.44261367 8.86176966 0.875 5.375 C0.70742188 4.37210937 0.53984375 3.36921875 0.3671875 2.3359375 C0.24601562 1.56507812 0.12484375 0.79421875 0 0 Z " fill="#36B294" transform="translate(317,120)"/>
<path d="M0 0 C2.74277578 3.19990508 4.6302836 6.00499382 6 10 C5.01 10.495 5.01 10.495 4 11 C0 4.5 0 4.5 0 0 Z " fill="#34B696" transform="translate(86,286)"/>
<path d="M0 0 C5.75 1.75 5.75 1.75 8 4 C7.01 4 6.02 4 5 4 C2.99690671 4.31421071 0.99628664 4.6451046 -1 5 C-0.67 3.35 -0.34 1.7 0 0 Z " fill="#19AF8B" transform="translate(107,311)"/>
<path d="M0 0 C1.32 1.32 2.64 2.64 4 4 C3.01 4.99 2.02 5.98 1 7 C0.34 6.67 -0.32 6.34 -1 6 C-0.67 5.34 -0.34 4.68 0 4 C-0.66 3.67 -1.32 3.34 -2 3 C-1.34 2.01 -0.68 1.02 0 0 Z " fill="#1AB890" transform="translate(276,120)"/>
<path d="M0 0 C2.64752004 2.57784846 4.94432065 4.91648098 7 8 C6.01 8 5.02 8 4 8 C0 2.74285714 0 2.74285714 0 0 Z " fill="#2EAE8E" transform="translate(92,296)"/>
</svg>
